Coordinates
version=1
nRows=16
nColumns=36
inDegrees=yes

Units are S.I. units (second, meters, Newtons, ...)
If the header above contains a line with 'inDegrees', this indicates whether rotational values are in degrees (yes) or radians (no).

endheader
time	pelvis_tilt	pelvis_list	pelvis_rotation	pelvis_tx	pelvis_ty	pelvis_tz	hip_flexion_r	hip_adduction_r	hip_rotation_r	knee_angle_r	knee_angle_r_beta	ankle_angle_r	subtalar_angle_r	mtp_angle_r	hip_flexion_l	hip_adduction_l	hip_rotation_l	knee_angle_l	knee_angle_l_beta	ankle_angle_l	subtalar_angle_l	mtp_angle_l	lumbar_extension	lumbar_bending	lumbar_rotation	arm_flex_r	arm_add_r	arm_rot_r	elbow_flex_r	pro_sup_r	arm_flex_l	arm_add_l	arm_rot_l	elbow_flex_l	pro_sup_l
      5.00000000	      3.87568732	     -2.89420215	      0.94859432	      0.61480595	      1.01601689	     -0.01799173	     13.44991672	      5.91864628	     -2.97095665	     40.66734301	      0.70977903	      6.47453249	     -4.05109954	     -7.49999987	      2.54576913	     -2.32903565	     -2.35886100	     25.59960374	      0.44679737	     11.71923046	      3.73202043	     -7.49999987	      4.75097191	      2.43406989	     -3.74855235	    -16.04177928	    -12.90506636	     16.53017947	    111.87203798	     94.79797859	     -3.14590442	     -9.82412711	     18.27958116	    129.48302254	     88.94825598
      5.01666670	      3.60311928	     -2.24723956	      1.41874087	      0.61240922	      1.02427555	     -0.01519447	     10.09248959	      6.13413297	     -1.37349135	     34.58535009	      0.60362823	      7.87913168	     -4.07121297	     -7.49999987	      4.77049924	     -2.34841924	     -3.53639446	     28.47914593	      0.49705486	     10.71490090	      3.43580552	     -7.49999987	      4.85664416	      1.65813418	     -4.54744153	    -12.60894599	    -11.99229223	     18.21506038	    112.13093356	     94.25621489	     -7.94621336	    -10.43689131	     15.75479990	    128.53847656	     88.87626576
      5.03333330	      3.42266106	     -1.71315262	      1.60003281	      0.61217189	      1.02124589	     -0.01428809	      7.33607175	      6.09750061	      0.39670748	     29.40305777	      0.51318017	      8.77019952	     -4.41863608	     -7.49999987	      6.98834082	     -2.29963508	     -4.49398312	     31.30889464	      0.54644330	      9.69062570	      3.05786215	     -7.49999987	      4.74656581	      1.04816618	     -4.94917416	     -9.17854462	    -10.75751490	     19.97654421	    112.24703869	     92.43002211	    -11.74021883	    -11.06842983	     13.96436904	    127.56534823	     88.31991102
      5.05000000	      3.37118435	     -1.26836244	      1.63391317	      0.61037953	      1.01633277	     -0.01231444	      5.06269282	      5.95102851	      1.80984297	     25.22403388	      0.44024244	     10.49891582	     -4.24424818	     -7.49999987	      9.45909254	     -2.32786425	     -5.21234701	     34.65407273	      0.60482767	      9.21169797	      2.68962719	     -7.49999987	      4.45056565	      0.56356861	     -4.78710812	     -5.64725693	     -9.40967957	     21.26178871	    112.29707773	     90.76986648	    -14.03102419	    -12.06619811	     13.10793673	    126.13723898	     87.76750226
      5.06666670	      3.54575769	     -1.00431561	      1.57867437	      0.60830226	      1.01477183	     -0.01086128	      3.17982864	      5.90845454	      3.26462133	     22.16900074	      0.38692205	     12.49012872	     -3.78260640	     -7.49999987	     12.19601547	     -2.59163956	     -5.47830329	     38.91035583	      0.67911382	      8.33948813	      2.13694044	     -7.49999987	      3.88446079	      0.35785291	     -3.80974002	     -2.23472659	     -8.44894521	     21.67650105	    112.74992642	     90.35426014	    -14.39583712	    -13.69441699	     13.53735571	    123.30187826	     87.51784819
      5.08333330	      3.83815881	     -0.87616720	      1.58253230	      0.60247007	      1.00355399	     -0.00935399	      2.24798150	      5.95924728	      4.81168309	     20.79942016	      0.36301836	     14.99010152	     -3.48900343	     -7.49999987	     15.61920654	     -2.92508085	     -5.31496846	     44.36463791	      0.77430900	      7.70156474	      1.42679244	     -7.49999987	      2.90254093	      0.36737882	     -2.49864164	      1.68584993	     -7.85743967	     22.25582919	    114.13122435	     89.47243222	    -15.15675126	    -14.96473588	     14.06407552	    121.42696071	     86.78924440
      5.10000000	      4.22203677	     -0.65399282	      1.60600714	      0.59806974	      0.99914217	     -0.00542614	      1.71267542	      6.01425406	      6.30062649	     20.45310757	      0.35697407	     17.12071228	     -3.96381108	     -7.49999987	     19.39187307	     -3.33357952	     -4.75383811	     50.53878310	      0.88206817	      6.89533482	      1.37677737	     -7.49999987	      1.83575138	      0.20181684	     -0.82686944	      5.57933470	     -7.31624675	     22.86381969	    115.75659110	     87.76787003	    -17.16231881	    -15.29969209	     14.25227597	    119.86212248	     85.18926445
      5.11666670	      4.77587706	     -0.15666155	      1.50609415	      0.59807004	      0.99945596	     -0.00327069	      1.09093758	      5.71546330	      6.70461795	     20.72536477	      0.36172585	     18.81201295	     -3.21043528	     -7.49999987	     22.65483454	     -3.63242420	     -4.07452058	     56.59476680	      0.98776502	      5.02561573	      2.50094517	     -7.49999987	      0.73516535	     -0.34592668	      1.16288053	      8.96682666	     -6.98673069	     23.08966341	    117.43998049	     87.12542859	    -19.80051088	    -15.26517137	     13.62654904	    118.63215673	     84.54012733
      5.13333330	      5.29230593	      0.22450560	      1.61481467	      0.59585059	      0.99196441	     -0.00023881	      1.21667685	      5.59078285	      6.86310591	     22.25776890	      0.38847135	     20.67635492	     -2.64589750	     -7.49999987	     26.38640711	     -4.12557586	     -3.20793595	     63.14669144	      1.10211768	      3.64541154	      3.59859009	     -7.49999987	     -0.24384836	     -0.84364248	      2.21519916	     12.71450864	     -6.87064362	     23.93256810	    118.61908178	     85.37269542	    -23.18141585	    -14.80846328	     11.80001352	    118.13653489	     82.83276330
      5.15000000	      5.67461830	      0.51953159	      1.76967236	      0.59215480	      0.99044674	      0.00285410	      1.97902477	      5.52804014	      7.00633895	     24.28891730	      0.42392158	     22.25798690	     -2.59263131	     -7.49999987	     29.83448733	     -4.55396469	     -2.28611704	     68.79880139	      1.20076561	      3.97570016	      5.57767861	     -7.49999987	     -1.07242733	     -1.36838479	      4.16613977	     15.62602320	     -7.23287476	     23.71960846	    120.48818434	     84.92755899	    -24.78886654	    -15.13063664	     11.30206931	    117.07768641	     82.34349713
      5.16666670	      5.86620979	      0.69683447	      2.02070165	      0.59258690	      0.99006898	      0.00446401	      2.92059789	      5.46755454	      6.98156289	     26.25195593	      0.45818307	     23.06896002	     -2.18139237	     -7.49999987	     32.72165697	     -4.81490186	     -1.46957781	     72.98427980	      1.27381598	      4.02180336	      7.30985643	     -7.49999987	     -1.25280935	     -1.61970170	      5.82538540	     18.22850021	     -7.76723972	     23.42880371	    121.29495597	     83.40127383	    -25.63522580	    -15.80327693	     11.32283846	    115.69984110	     80.58401616
      5.18333330	      6.13675451	      0.83276779	      2.25823757	      0.58885823	      0.99042494	      0.00486904	      3.87908208	      5.28837361	      6.87139036	     28.10680102	      0.49055622	     23.25239234	     -1.74899098	     -7.49999987	     34.80480013	     -4.85834589	     -1.08504960	     75.94453745	      1.32548223	      5.14737913	      7.90737169	     -7.49999987	     -1.78112495	     -1.82143528	      6.88671369	     20.91795908	     -8.39219041	     23.69101296	    122.02097172	     83.21399413	    -25.56990250	    -16.42971079	     11.44609061	    114.22460323	     80.24029488
      5.20000000	      6.35761725	      0.93896860	      2.30732296	      0.58905468	      0.99163429	      0.00685685	      4.65415789	      5.12941560	      6.54782324	     29.92797979	      0.52234179	     23.66363835	     -0.77092821	     -7.49999987	     35.99295541	     -4.82237934	     -1.02130580	     77.47229566	      1.35214664	      6.41974420	      8.44862575	     -7.49999987	     -2.21647246	     -1.94709895	      7.79182401	     23.08040275	     -8.85954461	     23.83437219	    122.15861216	     83.14424338	    -25.06520289	    -17.16854932	     11.56752951	    112.82361157	     79.91745474
      5.21666670	      6.48729197	      1.07253341	      2.38574214	      0.58839926	      0.99162299	      0.00682309	      5.44464130	      4.86720691	      5.97459812	     31.48261923	      0.54947536	     23.79182444	     -0.11603040	     -7.49999987	     36.89359392	     -4.62920061	     -1.08307040	     78.35155890	      1.36749268	      7.58301843	      8.79664336	     -7.49999987	     -2.47396896	     -2.14030520	      8.52403910	     24.63013024	     -9.24488631	     23.89890341	    122.39106003	     83.16075038	    -24.31571319	    -17.74978941	     11.94503751	    111.72242456	     79.61369942
      5.23333330	      6.55049525	      1.08062051	      2.54654038	      0.59018479	      0.99270287	      0.00657227	      5.74849861	      4.77392323	      5.62032499	     32.20013323	      0.56199834	     23.33592301	      0.06231250	     -7.49999987	     36.84922395	     -4.35606666	     -1.34330010	     78.12201889	      1.36348645	      8.31769954	      8.54587764	     -7.49999987	     -2.45626301	     -2.06556864	      8.85134787	     25.62644332	     -9.36925749	     23.64505956	    122.45430732	     83.16423776	    -24.08153488	    -18.13253037	     11.79276420	    111.59778935	     79.56937990
      5.25000000	      6.65133938	      1.36183268	      2.42641812	      0.58916744	      0.99442844	      0.00651172	      6.00206230	      4.33814000	      5.27381592	     32.97550407	      0.57553112	     23.43578821	      1.22061322	     -7.49999987	     36.52105239	     -3.95817235	     -1.81856842	     77.50163680	      1.35265874	      9.21222228	      8.22957602	     -7.49999987	     -2.60418716	     -2.36092053	      9.47593197	     25.99204547	     -9.58704841	     23.70450629	    122.64832701	     82.07842376	    -22.74448961	    -18.55822105	     12.59879955	    110.75403599	     77.86288809
